# xmcd CD database file generated by Grip 2.94
# 
# Track frame offsets:
#       150
#       22427
#       43429
#       60156
#       78908
#       96310
#       115737
#       135989
#       155116
#       172593
#       188795
#       208372
# 
# Disc length: 3061 seconds
# 
# Revision: 3
# Processed by: cddbd v1.4b41PL1 Copyright (c) Steve Scherf et al.
# Submitted via: Grip 2.94
# 
DISCID=a30bf30c
DTITLE=김민종 - WHY?
DYEAR=1900
DGENRE=
TTITLE0=아름다운 아픔
TTITLE1=(2)왜
TTITLE2=(3)그대 하나만
TTITLE3=(4)용서
TTITLE4=(5)야우(夜雨
TTITLE5=(6)눈물
TTITLE6=(7)너만은 아니길
TTITLE7=(8)나를 보내며
TTITLE8=(9)넌 모를꺼야
TTITLE9=(10)방황
TTITLE10=(11)고백
TTITLE11=(12)다시는
EXTD=
EXTT0=
EXTT1=
EXTT2=
EXTT3=
EXTT4=
EXTT5=
EXTT6=
EXTT7=
EXTT8=
EXTT9=
EXTT10=
EXTT11=
PLAYORDER=
